<?xml version="1.0" encoding="UTF-8"?><svg id="a" xmlns="http://www.w3.org/2000/svg" viewBox="0 0 426.61 426.61"><defs><style>.b{fill:#fff;}</style></defs><path class="b" d="M0,380.04C0,269.16,0,158.28,0,47.39c.22-.34,.59-.66,.63-1.01C3.29,23.48,24.21,.56,56.29,.68c104.5,.39,209,.13,313.5,.2,4.81,0,9.75,.3,14.42,1.36,25.31,5.77,41.66,26.81,41.67,53.42,.03,86.19,.01,172.37,.01,258.56,0,19.68,.12,39.35-.04,59.03-.18,23.37-14.43,43.13-36.26,50.55-3.36,1.14-6.86,1.89-10.29,2.82h-113.13v-159.8h51.66c4.53-17.77,8.98-35.24,13.56-53.24h-65.22c0-1.34,0-2.28,0-3.23,0-19.68-.07-39.35,.02-59.03,.09-19.67,13.53-33.12,33.18-33.32,8.73-.09,17.46,0,26.19-.03,1.46,0,2.91-.13,4.27-.19v-52.89c-12.32,0-24.36-.22-36.39,.07-10.49,.25-20.63,2.68-30.06,7.29-33.01,16.13-49.82,42.76-50.4,79.43-.3,19.12-.05,38.24-.05,57.36v4.85h-53.02v53.12h53.02v159.59H46.58c-.61-.26-1.19-.64-1.83-.76-20.76-3.88-34.66-15.88-41.95-35.58C1.59,386.97,.92,383.46,0,380.04Zm287.66,24.99c1.21,.1,2.01,.23,2.82,.23,27.03,.01,54.07,.04,81.1-.03,2.88,0,5.86-.25,8.63-.99,15.65-4.16,24.32-16.04,24.32-33.33,.03-104.78,.02-209.56-.03-314.34,0-3.3-.14-6.71-.96-9.88-4.07-15.81-16.06-24.51-33.59-24.51-104.67-.02-209.33-.02-314,.03-3.44,0-6.99,.16-10.29,1.02-15.66,4.12-24.3,16.03-24.31,33.32-.03,104.78-.02,209.56,.03,314.34,0,3.3,.15,6.71,.97,9.88,3.97,15.4,15.76,24.41,32.36,24.46,44.5,.12,89,.04,133.5,.02,1.05,0,2.1-.24,3.12-.36v-116.61c-1.74,0-3.22,0-4.71,0-14.69,0-29.39-.09-44.08,.07-3.21,.03-4.27-.79-4.26-4.16,.13-29.24,.13-58.49,0-87.73-.02-3.39,1.08-4.18,4.27-4.15,14.83,.15,29.67,.07,44.5,.05,1.45,0,2.91-.14,4.54-.22,0-12.45-.07-24.36,.03-36.28,.05-5.95,.03-11.95,.74-17.85,2.9-24,12.61-44.93,29.53-62.26,18.09-18.53,40.13-29.8,65.98-31.54,20.43-1.37,41-.66,61.51-.86,.52,0,1.03,.24,1.59,.37v95.42c-1.82,0-3.33,0-4.83,0-15.11,0-30.22-.02-45.33,0-9.36,.02-13.28,3.99-13.29,13.43-.02,11.78-.01,23.56,0,35.34,0,1.34,.14,2.68,.25,4.6h70.98c-8.25,32.27-16.33,63.87-24.53,95.94h-46.58v116.55Z"/><path class="b" d="M212.94,426.61v-159.59h-53.02v-53.12h53.02v-4.85c0-19.12-.25-38.25,.05-57.36,.58-36.67,17.38-63.3,50.4-79.43,9.42-4.6,19.57-7.03,30.06-7.29,12.03-.29,24.07-.07,36.39-.07v52.89c-1.36,.06-2.81,.19-4.27,.19-8.73,.02-17.46-.06-26.19,.03-19.65,.2-33.09,13.65-33.18,33.32-.09,19.68-.02,39.35-.02,59.03,0,.95,0,1.89,0,3.23h65.22c-4.59,18-9.04,35.47-13.56,53.24h-51.66v159.8h-53.24Z"/><path class="b" d="M379.3,426.61c3.43-.93,6.93-1.68,10.29-2.82,21.83-7.42,36.07-27.17,36.26-50.55,.16-19.67,.04-39.35,.04-59.03,0-86.19,.02-172.37-.01-258.56-.01-26.61-16.36-47.65-41.67-53.42-4.67-1.07-9.61-1.36-14.42-1.36-104.5-.07-209,.19-313.5-.2C24.21,.56,3.29,23.48,.63,46.38,.59,46.74,.22,47.06,0,47.39c0-15.79,0-31.59,0-47.39,142.17,0,284.34,0,426.61,0V426.61h-47.31Z"/><path class="b" d="M0,380.04c.92,3.42,1.59,6.93,2.81,10.23,7.29,19.7,21.18,31.7,41.95,35.58,.63,.12,1.22,.5,1.83,.76H0C0,411.09,0,395.57,0,380.04Z"/><path class="b" d="M287.66,405.03v-116.55h46.58c8.2-32.07,16.28-63.67,24.53-95.94h-70.98c-.11-1.92-.25-3.26-.25-4.6-.02-11.78-.03-23.56,0-35.34,.02-9.44,3.94-13.42,13.29-13.43,15.11-.03,30.22,0,45.33,0,1.5,0,3,0,4.83,0V43.74c-.56-.14-1.08-.38-1.59-.37-20.51,.19-41.08-.52-61.51,.86-25.85,1.74-47.89,13.01-65.98,31.54-16.92,17.33-26.64,38.26-29.53,62.26-.71,5.89-.69,11.89-.74,17.85-.11,11.91-.03,23.83-.03,36.28-1.64,.08-3.09,.22-4.54,.22-14.83,.02-29.67,.09-44.5-.05-3.19-.03-4.28,.76-4.27,4.15,.13,29.24,.13,58.49,0,87.73-.01,3.37,1.05,4.19,4.26,4.16,14.69-.15,29.39-.07,44.08-.07,1.49,0,2.97,0,4.71,0v116.61c-1.03,.12-2.08,.36-3.12,.36-44.5,.02-89,.09-133.5-.02-16.6-.04-28.39-9.06-32.36-24.46-.82-3.17-.97-6.58-.97-9.88-.05-104.78-.05-209.56-.03-314.34,0-17.3,8.65-29.2,24.31-33.32,3.29-.87,6.85-1.02,10.29-1.02,104.67-.05,209.33-.05,314-.03,17.54,0,29.52,8.7,33.59,24.51,.82,3.17,.96,6.58,.96,9.88,.05,104.78,.05,209.56,.03,314.34,0,17.29-8.67,29.16-24.32,33.33-2.77,.74-5.75,.98-8.63,.99-27.03,.07-54.07,.04-81.1,.03-.81,0-1.61-.13-2.82-.23Z"/></svg>