<?xml version="1.0" encoding="UTF-8"?><svg id="a" xmlns="http://www.w3.org/2000/svg" viewBox="0 0 409.6 409.6"><defs><style>.b{fill:#fff;}</style></defs><path class="b" d="M305.6,409.6H104c-4.18-.67-8.41-1.11-12.53-2.04-45.93-10.36-75.39-38.16-88.09-83.43C1.7,318.17,1.1,311.91,0,305.79c0-67.07,0-134.15,0-201.22,.24-1.29,.57-2.58,.72-3.89,1.67-14.98,5.88-29.24,13.56-42.2C36.75,20.54,70.29,1.09,114.42,.85c60.25-.33,120.5-.15,180.75,0,7.69,.02,15.56,.42,23.03,2.08,45.89,10.18,75.31,38.06,88.01,83.26,1.68,5.97,2.28,12.24,3.38,18.38v201.22c-.67,4.18-1.11,8.41-2.05,12.53-10.39,45.84-38.24,75.24-83.6,87.91-5.97,1.67-12.23,2.27-18.36,3.37Zm-100.69-24.09c29.86,0,59.73,.12,89.59-.09,7.02-.05,14.2-.52,21.02-2.04,42.14-9.41,69.86-44.3,69.92-87.79,.09-60.28,.05-120.56,0-180.84,0-10.29-1.25-20.45-4.78-30.19-13.44-37.09-45.63-59.65-85.39-59.69-60.26-.07-120.52-.08-180.77,.07-6.88,.02-13.92,.58-20.62,2.09C52.05,36.47,24.31,71.1,24.18,114.18c-.18,60.68-.2,121.36,.02,182.03,.11,30.48,12.6,55.06,37.39,73.05,15.72,11.41,33.62,16.24,52.94,16.25,30.13,0,60.26,0,90.39,0Z"/><path class="b" d="M409.6,104.57c-1.1-6.13-1.71-12.4-3.38-18.38-12.69-45.21-42.12-73.08-88.01-83.26-7.47-1.66-15.34-2.06-23.03-2.08-60.25-.16-120.5-.34-180.75,0C70.29,1.09,36.75,20.54,14.28,58.48,6.6,71.44,2.39,85.7,.72,100.69c-.15,1.31-.47,2.59-.72,3.89V0H409.6V104.57Z"/><path class="b" d="M0,305.79c1.1,6.12,1.7,12.38,3.38,18.34,12.7,45.26,42.16,73.07,88.09,83.43,4.12,.93,8.35,1.37,12.53,2.04H0c0-34.6,0-69.2,0-103.81Z"/><path class="b" d="M305.6,409.6c6.13-1.1,12.39-1.7,18.36-3.37,45.35-12.67,73.21-42.07,83.6-87.91,.93-4.12,1.38-8.35,2.05-12.53v103.81h-104Z"/><path class="b" d="M204.91,385.51c-30.13,0-60.26,0-90.39,0-19.31,0-37.21-4.83-52.94-16.25-24.79-17.99-37.28-42.57-37.39-73.05-.22-60.68-.2-121.36-.02-182.03,.13-43.07,27.87-77.7,69.71-87.14,6.69-1.51,13.73-2.07,20.62-2.09,60.26-.16,120.52-.14,180.77-.07,39.76,.04,71.95,22.6,85.39,59.69,3.53,9.74,4.77,19.9,4.78,30.19,.05,60.28,.09,120.56,0,180.84-.06,43.49-27.78,78.38-69.92,87.79-6.83,1.52-14,1.99-21.02,2.04-29.86,.22-59.72,.09-89.59,.09Zm112.15-180.23c.19-61.57-49.73-111.58-111.97-112.15-61.54-.57-112.38,50-112.56,111.96-.18,61.57,49.74,111.58,111.97,112.15,61.54,.57,112.37-50,112.56-111.96Zm40.83-118.92c.03-18.66-15.31-33.99-34.03-33.99-18.62,0-34.15,15.45-34.15,33.96,0,18.47,15.6,34.05,34.13,34.09,18.53,.04,34.02-15.45,34.05-34.06Z"/><path class="b" d="M317.06,205.28c-.19,61.96-51.02,112.52-112.56,111.96-62.23-.57-112.15-50.58-111.97-112.15,.19-61.96,51.03-112.53,112.56-111.96,62.23,.58,112.15,50.58,111.97,112.15Zm-112.29-88c-48.53,.03-87.9,39.26-88.05,87.73-.15,48.52,39.44,88.1,88.1,88.08,48.52-.02,87.9-39.26,88.04-87.73,.15-48.52-39.45-88.11-88.1-88.08Z"/><path class="b" d="M357.89,86.36c-.03,18.61-15.52,34.1-34.05,34.06-18.52-.04-34.12-15.62-34.13-34.09,0-18.51,15.53-33.96,34.15-33.96,18.71,0,34.06,15.32,34.03,33.99Zm-24.2,.04c.03-5.44-4.42-9.89-9.86-9.87-5.37,.02-9.95,4.63-9.87,9.94,.08,5.09,4.64,9.65,9.74,9.75,5.32,.1,9.96-4.45,9.99-9.82Z"/><path class="b" d="M204.77,117.28c48.64-.03,88.24,39.56,88.1,88.08-.15,48.48-39.52,87.72-88.04,87.73-48.66,.02-88.25-39.56-88.1-88.08,.15-48.48,39.51-87.7,88.05-87.73Z"/><path class="b" d="M333.69,86.41c-.03,5.36-4.67,9.92-9.99,9.82-5.1-.1-9.66-4.66-9.74-9.75-.09-5.31,4.49-9.92,9.87-9.94,5.44-.02,9.89,4.44,9.86,9.87Z"/></svg>