<?xml version="1.0" encoding="UTF-8"?><svg id="a" xmlns="http://www.w3.org/2000/svg" viewBox="0 0 384 384"><defs><style>.b{fill:#fff;}</style></defs><path class="b" d="M0,211.09v-39.67c.19-1.21,.46-2.41,.56-3.62,1.09-13.29,1.85-26.62,3.31-39.87,1.12-10.14,2.4-20.36,4.88-30.23,4.75-18.84,21.51-32.77,42.04-34.65,24.82-2.28,49.69-4.29,74.59-5.24,51-1.94,102.03-1.64,153.01,.78,19.52,.93,39.07,2.66,58.44,5.23,19.34,2.56,35.98,18.96,38.81,36.75,1.84,11.56,3.52,23.17,4.72,34.82,4.96,48.26,3.88,96.38-3.93,144.3-3.7,22.71-18.22,38.19-41.01,41.43-18.72,2.66-37.68,4.32-56.58,4.98-34.15,1.19-68.33,1.81-102.5,1.73-41.77-.09-83.56-.71-125.11-5.95-22.49-2.83-40.32-18.28-43.47-39.12-2.65-17.48-4.35-35.11-6.32-52.7-.71-6.3-.96-12.65-1.43-18.97Zm153.75-76.7v116.11c33.35-19.38,66.26-38.5,99.76-57.97-33.47-19.51-66.44-38.73-99.76-58.14Z"/><path class="b" d="M0,211.09c.46,6.33,.72,12.67,1.43,18.97,1.97,17.58,3.68,35.21,6.32,52.7,3.15,20.84,20.99,36.29,43.47,39.12,41.55,5.23,83.34,5.85,125.11,5.95,34.17,.08,68.35-.54,102.5-1.73,18.9-.66,37.86-2.32,56.58-4.98,22.79-3.24,37.31-18.73,41.01-41.43,7.82-47.92,8.89-96.04,3.93-144.3-1.2-11.64-2.88-23.25-4.72-34.82-2.84-17.79-19.47-34.19-38.81-36.75-19.38-2.57-38.92-4.3-58.44-5.23-50.98-2.42-102.01-2.72-153.01-.78-24.89,.95-49.77,2.95-74.59,5.24-20.53,1.89-37.29,15.82-42.04,34.65-2.49,9.86-3.76,20.09-4.88,30.23-1.46,13.25-2.23,26.58-3.31,39.87C.46,169.01,.19,170.21,0,171.42,0,114.28,0,57.14,0,0H384V384H0C0,326.36,0,268.73,0,211.09Z"/><path class="b" d="M153.75,134.39c33.31,19.42,66.28,38.63,99.76,58.14-33.5,19.46-66.41,38.59-99.76,57.97v-116.11Z"/></svg>